<svg xmlns="http://www.w3.org/2000/svg" viewBox="0 0 830 654" width="830" height="654" font-family="-apple-system, BlinkMacSystemFont, 'Segoe UI', Roboto, Helvetica, Arial, sans-serif" role="img"><defs><marker id="ah" viewBox="0 0 10 10" refX="9" refY="5" markerWidth="7" markerHeight="7" orient="auto"><path d="M0 0 L10 5 L0 10 z" fill="#555555"/></marker><marker id="ahs" viewBox="0 0 10 10" refX="1" refY="5" markerWidth="7" markerHeight="7" orient="auto"><path d="M10 0 L0 5 L10 10 z" fill="#555555"/></marker><marker id="ahd" viewBox="0 0 10 10" refX="9" refY="5" markerWidth="7" markerHeight="7" orient="auto"><path d="M0 0 L10 5 L0 10 z" fill="#1e1e1e"/></marker><marker id="ahds" viewBox="0 0 10 10" refX="1" refY="5" markerWidth="7" markerHeight="7" orient="auto"><path d="M10 0 L0 5 L10 10 z" fill="#1e1e1e"/></marker><marker id="xah" viewBox="0 0 10 10" refX="8.5" refY="5" markerWidth="8" markerHeight="8" orient="auto"><path d="M0 0 L10 5 L0 10 z" fill="#185fa5"/></marker></defs><text x="415.0" y="28" font-size="16" font-weight="500" fill="#0f3460" text-anchor="middle">Periodic Random Cell Encoder</text><text x="24" y="56.0" font-size="12.5" fill="#555555">duty cycle = lᵢ / Tᵢ</text><rect x="145.2" y="92.0" width="111.4" height="30" fill="#eef3f9"/><line x1="145.2" y1="92.0" x2="145.2" y2="122.0" stroke="#9a9a93" stroke-width="1" stroke-dasharray="3 3"/><line x1="256.6" y1="92.0" x2="256.6" y2="122.0" stroke="#9a9a93" stroke-width="1" stroke-dasharray="3 3"/><rect x="33.8" y="94.0" width="55.7" height="26" fill="#fafaf8" stroke="#b8b6ad" stroke-width="1.2" stroke-dasharray="4 3"/><rect x="256.6" y="94.0" width="55.7" height="26" fill="#fafaf8" stroke="#b8b6ad" stroke-width="1.2" stroke-dasharray="4 3"/><rect x="368.1" y="94.0" width="55.7" height="26" fill="#fafaf8" stroke="#b8b6ad" stroke-width="1.2" stroke-dasharray="4 3"/><rect x="479.5" y="94.0" width="55.7" height="26" fill="#fafaf8" stroke="#b8b6ad" stroke-width="1.2" stroke-dasharray="4 3"/><rect x="590.9" y="94.0" width="55.7" height="26" fill="#fafaf8" stroke="#b8b6ad" stroke-width="1.2" stroke-dasharray="4 3"/><rect x="702.4" y="94.0" width="55.7" height="26" fill="#fafaf8" stroke="#b8b6ad" stroke-width="1.2" stroke-dasharray="4 3"/><rect x="813.8" y="94.0" width="14.2" height="26" fill="#fafaf8" stroke="#b8b6ad" stroke-width="1.2" stroke-dasharray="4 3"/><rect x="145.2" y="94.0" width="55.7" height="26" fill="#f4f2ec" stroke="#1e1e1e" stroke-width="1.5"/><text x="173.0" y="111.0" font-size="13" font-weight="500" fill="#1e1e1e" text-anchor="middle">1</text><text x="251.6" y="111.0" font-size="13" fill="#0f3460" text-anchor="end"><tspan font-style="italic">T</tspan><tspan dy="3" font-size="8.5">1</tspan></text><rect x="121.7" y="124.0" width="164.2" height="30" fill="#eef3f9"/><line x1="121.7" y1="124.0" x2="121.7" y2="154.0" stroke="#9a9a93" stroke-width="1" stroke-dasharray="3 3"/><line x1="285.9" y1="124.0" x2="285.9" y2="154.0" stroke="#9a9a93" stroke-width="1" stroke-dasharray="3 3"/><rect x="2.0" y="126.0" width="37.6" height="26" fill="#e3f2ec" stroke="#1d9e75" stroke-width="1.2" stroke-dasharray="4 3"/><rect x="285.9" y="126.0" width="82.1" height="26" fill="#e3f2ec" stroke="#1d9e75" stroke-width="1.2" stroke-dasharray="4 3"/><rect x="450.2" y="126.0" width="82.1" height="26" fill="#e3f2ec" stroke="#1d9e75" stroke-width="1.2" stroke-dasharray="4 3"/><rect x="614.4" y="126.0" width="82.1" height="26" fill="#e3f2ec" stroke="#1d9e75" stroke-width="1.2" stroke-dasharray="4 3"/><rect x="778.6" y="126.0" width="49.4" height="26" fill="#e3f2ec" stroke="#1d9e75" stroke-width="1.2" stroke-dasharray="4 3"/><rect x="121.7" y="126.0" width="82.1" height="26" fill="#1d9e75" stroke="#0f6e56" stroke-width="1.5"/><text x="162.8" y="143.0" font-size="13" font-weight="500" fill="#ffffff" text-anchor="middle">2</text><text x="280.9" y="143.0" font-size="13" fill="#0f3460" text-anchor="end"><tspan font-style="italic">T</tspan><tspan dy="3" font-size="8.5">2</tspan></text><rect x="192.1" y="156.0" width="246.3" height="30" fill="#eef3f9"/><line x1="192.1" y1="156.0" x2="192.1" y2="186.0" stroke="#9a9a93" stroke-width="1" stroke-dasharray="3 3"/><line x1="438.4" y1="156.0" x2="438.4" y2="186.0" stroke="#9a9a93" stroke-width="1" stroke-dasharray="3 3"/><rect x="2.0" y="158.0" width="66.9" height="26" fill="#e3f2ec" stroke="#1d9e75" stroke-width="1.2" stroke-dasharray="4 3"/><rect x="438.4" y="158.0" width="123.2" height="26" fill="#e3f2ec" stroke="#1d9e75" stroke-width="1.2" stroke-dasharray="4 3"/><rect x="684.8" y="158.0" width="123.2" height="26" fill="#e3f2ec" stroke="#1d9e75" stroke-width="1.2" stroke-dasharray="4 3"/><rect x="192.1" y="158.0" width="123.2" height="26" fill="#1d9e75" stroke="#0f6e56" stroke-width="1.5"/><text x="253.7" y="175.0" font-size="13" font-weight="500" fill="#ffffff" text-anchor="middle">3</text><text x="433.4" y="175.0" font-size="13" fill="#0f3460" text-anchor="end"><tspan font-style="italic">T</tspan><tspan dy="3" font-size="8.5">3</tspan></text><rect x="227.3" y="188.0" width="187.7" height="30" fill="#eef3f9"/><line x1="227.3" y1="188.0" x2="227.3" y2="218.0" stroke="#9a9a93" stroke-width="1" stroke-dasharray="3 3"/><line x1="415.0" y1="188.0" x2="415.0" y2="218.0" stroke="#9a9a93" stroke-width="1" stroke-dasharray="3 3"/><rect x="39.6" y="190.0" width="93.8" height="26" fill="#e3f2ec" stroke="#1d9e75" stroke-width="1.2" stroke-dasharray="4 3"/><rect x="415.0" y="190.0" width="93.8" height="26" fill="#e3f2ec" stroke="#1d9e75" stroke-width="1.2" stroke-dasharray="4 3"/><rect x="602.6" y="190.0" width="93.8" height="26" fill="#e3f2ec" stroke="#1d9e75" stroke-width="1.2" stroke-dasharray="4 3"/><rect x="790.3" y="190.0" width="37.7" height="26" fill="#e3f2ec" stroke="#1d9e75" stroke-width="1.2" stroke-dasharray="4 3"/><rect x="227.3" y="190.0" width="93.8" height="26" fill="#1d9e75" stroke="#0f6e56" stroke-width="1.5"/><text x="274.2" y="207.0" font-size="13" font-weight="500" fill="#ffffff" text-anchor="middle">4</text><text x="410.0" y="207.0" font-size="13" fill="#0f3460" text-anchor="end"><tspan font-style="italic">T</tspan><tspan dy="3" font-size="8.5">4</tspan></text><rect x="156.9" y="220.0" width="387.1" height="30" fill="#eef3f9"/><line x1="156.9" y1="220.0" x2="156.9" y2="250.0" stroke="#9a9a93" stroke-width="1" stroke-dasharray="3 3"/><line x1="544.0" y1="220.0" x2="544.0" y2="250.0" stroke="#9a9a93" stroke-width="1" stroke-dasharray="3 3"/><rect x="544.0" y="222.0" width="193.5" height="26" fill="#fafaf8" stroke="#b8b6ad" stroke-width="1.2" stroke-dasharray="4 3"/><rect x="156.9" y="222.0" width="193.5" height="26" fill="#f4f2ec" stroke="#1e1e1e" stroke-width="1.5"/><text x="253.7" y="239.0" font-size="13" font-weight="500" fill="#1e1e1e" text-anchor="middle">5</text><text x="539.0" y="239.0" font-size="13" fill="#0f3460" text-anchor="end"><tspan font-style="italic">T</tspan><tspan dy="3" font-size="8.5">5</tspan></text><line x1="156.9" y1="248.0" x2="156.9" y2="316.0" stroke="#9a9a93" stroke-width="1" stroke-dasharray="2 4"/><line x1="350.5" y1="248.0" x2="350.5" y2="316.0" stroke="#9a9a93" stroke-width="1" stroke-dasharray="2 4"/><line x1="544.0" y1="248.0" x2="544.0" y2="316.0" stroke="#9a9a93" stroke-width="1" stroke-dasharray="2 4"/><line x1="156.9" y1="286.0" x2="350.5" y2="286.0" stroke="#555555" stroke-width="1.25" marker-start="url(#ahs)" marker-end="url(#ah)"/><text x="253.7" y="281.0" font-size="15" fill="#0f3460" text-anchor="middle"><tspan font-style="italic">l</tspan><tspan dy="3" font-size="10.5">5</tspan></text><line x1="156.9" y1="312.0" x2="328.5" y2="312.0" stroke="#555555" stroke-width="1.25" marker-start="url(#ahs)"/><line x1="372.5" y1="312.0" x2="544.0" y2="312.0" stroke="#555555" stroke-width="1.25" marker-end="url(#ah)"/><text x="350.5" y="317.0" font-size="15" fill="#0f3460" text-anchor="middle"><tspan font-style="italic">T</tspan><tspan dy="3" font-size="10.5">5</tspan></text><line x1="467.8" y1="80.0" x2="467.8" y2="337.0" stroke="#185fa5" stroke-width="2" stroke-dasharray="6 4" marker-end="url(#xah)"/><text x="467.8" y="76.0" font-size="14" font-style="italic" font-weight="600" fill="#185fa5" text-anchor="middle">x = 61</text><line x1="104" y1="340.0" x2="806" y2="340.0" stroke="#1e1e1e" stroke-width="1.5" marker-start="url(#ahds)" marker-end="url(#ahd)"/><line x1="110.0" y1="336.0" x2="110.0" y2="352.0" stroke="#1e1e1e" stroke-width="1.5"/><text x="110.0" y="367.0" font-size="12" fill="#555555" text-anchor="middle">origin = 0</text><text x="467.8" y="367.0" font-size="13" font-style="italic" font-weight="600" fill="#185fa5" text-anchor="middle">x = 61</text><text x="24" y="390.0" font-size="12" font-weight="500" fill="#0f6e56">random sampling of bins that create modular intervals that vary by phase, offset, and duty cycle</text><line x1="16" y1="400.0" x2="814" y2="400.0" stroke="#d8d6cd" stroke-width="1.25" stroke-dasharray="3 5"/><rect x="135.0" y="416" width="104.0" height="150.0" rx="8" fill="#ffffff" stroke="#e7e5dc" stroke-width="1.1"/><text x="143.0" y="433" font-size="12.5" font-weight="700" fill="#0f3460">1</text><circle cx="187.0" cy="480" r="12.1" fill="#ffffff" stroke="#bdbbb1" stroke-width="1.2"/><path d="M187.0 480.0 L198.1 484.9 L197.5 486.0 L196.9 487.0 L196.1 487.9 L195.3 488.8 L194.3 489.6 L193.3 490.3 L192.2 490.9 L191.1 491.4 L189.9 491.7 L188.7 492.0 L187.5 492.1 L186.3 492.1 L185.1 491.9 L183.9 491.7 L182.7 491.3 L181.6 490.8 L180.5 490.2 L179.5 489.5 L178.6 488.7 L177.8 487.8 L177.0 486.8 L176.4 485.8 L175.9 484.7 L175.4 483.5 L175.1 482.3 L175.0 481.1 L174.9 479.9 L175.0 478.7 L175.2 477.5 L175.5 476.3 L175.9 475.1 Z" fill="#e3f2ec" fill-opacity="1" stroke="#9bc9b8" stroke-width="1.2"/><line x1="198.1" y1="484.9" x2="203.6" y2="487.3" stroke="#1e1e1e" stroke-width="2" stroke-linecap="round"/><line x1="187.0" y1="480" x2="196.8" y2="477.5" stroke="#185fa5" stroke-width="2" stroke-linecap="round"/><circle cx="196.8" cy="477.5" r="2.7" fill="#185fa5"/><circle cx="187.0" cy="480" r="2.1" fill="#1e1e1e"/><text x="187.0" y="540" font-size="10" fill="#333333" text-anchor="middle">T = 19 &#183; l = 9.5</text><text x="187.0" y="554" font-size="10" fill="#333333" text-anchor="middle">&#966; = 6 &#183; x = 61</text><rect x="249.0" y="416" width="104.0" height="150.0" rx="8" fill="#ffffff" stroke="#1d9e75" stroke-width="2"/><text x="257.0" y="433" font-size="12.5" font-weight="700" fill="#0f6e56">2</text><circle cx="301.0" cy="480" r="17.8" fill="#ffffff" stroke="#bdbbb1" stroke-width="1.2"/><path d="M301.0 480.0 L308.7 463.9 L310.3 464.8 L311.8 465.8 L313.2 467.0 L314.4 468.3 L315.6 469.7 L316.5 471.2 L317.3 472.9 L318.0 474.5 L318.4 476.3 L318.7 478.1 L318.8 479.9 L318.7 481.7 L318.5 483.5 L318.0 485.2 L317.4 486.9 L316.6 488.5 L315.7 490.1 L314.6 491.5 L313.4 492.8 L312.0 494.0 L310.5 495.1 L309.0 495.9 L307.3 496.7 L305.6 497.2 L303.8 497.6 L302.0 497.8 L300.2 497.8 L298.4 497.6 L296.7 497.3 L294.9 496.8 L293.3 496.1 Z" fill="#1d9e75" fill-opacity="0.85" stroke="#0f6e56" stroke-width="1.2"/><line x1="308.7" y1="463.9" x2="311.3" y2="458.5" stroke="#1e1e1e" stroke-width="2" stroke-linecap="round"/><line x1="301.0" y1="480" x2="315.3" y2="473.1" stroke="#0f6e56" stroke-width="2.4" stroke-linecap="round"/><circle cx="315.3" cy="473.1" r="2.7" fill="#0f6e56"/><circle cx="301.0" cy="480" r="2.1" fill="#1e1e1e"/><text x="301.0" y="540" font-size="10" fill="#333333" text-anchor="middle">T = 28 &#183; l = 14</text><text x="301.0" y="554" font-size="10" fill="#333333" text-anchor="middle">&#966; = 2 &#183; x = 61</text><rect x="363.0" y="416" width="104.0" height="150.0" rx="8" fill="#ffffff" stroke="#1d9e75" stroke-width="2"/><text x="371.0" y="433" font-size="12.5" font-weight="700" fill="#0f6e56">3</text><circle cx="415.0" cy="480" r="26.7" fill="#ffffff" stroke="#bdbbb1" stroke-width="1.2"/><path d="M415.0 480.0 L438.1 493.4 L436.7 495.6 L435.0 497.7 L433.1 499.7 L431.0 501.4 L428.8 502.9 L426.4 504.2 L423.9 505.2 L421.3 506.0 L418.6 506.5 L415.9 506.7 L413.2 506.7 L410.5 506.3 L407.9 505.8 L405.3 504.9 L402.8 503.8 L400.5 502.4 L398.3 500.9 L396.3 499.1 L394.4 497.1 L392.8 494.9 L391.4 492.6 L390.3 490.1 L389.4 487.6 L388.7 484.9 L388.4 482.3 L388.3 479.5 L388.5 476.8 L388.9 474.2 L389.6 471.6 L390.6 469.0 L391.9 466.6 Z" fill="#1d9e75" fill-opacity="0.85" stroke="#0f6e56" stroke-width="1.2"/><line x1="438.1" y1="493.4" x2="443.3" y2="496.4" stroke="#1e1e1e" stroke-width="2" stroke-linecap="round"/><line x1="415.0" y1="480" x2="422.3" y2="503.6" stroke="#0f6e56" stroke-width="2.4" stroke-linecap="round"/><circle cx="422.3" cy="503.6" r="2.7" fill="#0f6e56"/><circle cx="415.0" cy="480" r="2.1" fill="#1e1e1e"/><text x="415.0" y="540" font-size="10" fill="#333333" text-anchor="middle">T = 42 &#183; l = 21</text><text x="415.0" y="554" font-size="10" fill="#333333" text-anchor="middle">&#966; = 14 &#183; x = 61</text><rect x="477.0" y="416" width="104.0" height="150.0" rx="8" fill="#ffffff" stroke="#1d9e75" stroke-width="2"/><text x="485.0" y="433" font-size="12.5" font-weight="700" fill="#0f6e56">4</text><circle cx="529.0" cy="480" r="20.4" fill="#ffffff" stroke="#bdbbb1" stroke-width="1.2"/><path d="M529.0 480.0 L514.6 494.4 L513.2 492.9 L512.0 491.2 L511.0 489.4 L510.1 487.6 L509.4 485.6 L509.0 483.6 L508.7 481.5 L508.6 479.5 L508.8 477.4 L509.2 475.4 L509.7 473.4 L510.5 471.5 L511.5 469.7 L512.6 467.9 L513.9 466.3 L515.3 464.9 L516.9 463.6 L518.7 462.5 L520.5 461.5 L522.4 460.7 L524.4 460.2 L526.4 459.8 L528.5 459.6 L530.5 459.7 L532.6 460.0 L534.6 460.4 L536.6 461.1 L538.4 462.0 L540.2 463.0 L541.9 464.2 L543.4 465.6 Z" fill="#1d9e75" fill-opacity="0.85" stroke="#0f6e56" stroke-width="1.2"/><line x1="514.6" y1="494.4" x2="510.4" y2="498.6" stroke="#1e1e1e" stroke-width="2" stroke-linecap="round"/><line x1="529.0" y1="480" x2="518.8" y2="464.7" stroke="#0f6e56" stroke-width="2.4" stroke-linecap="round"/><circle cx="518.8" cy="464.7" r="2.7" fill="#0f6e56"/><circle cx="529.0" cy="480" r="2.1" fill="#1e1e1e"/><text x="529.0" y="540" font-size="10" fill="#333333" text-anchor="middle">T = 32 &#183; l = 16</text><text x="529.0" y="554" font-size="10" fill="#333333" text-anchor="middle">&#966; = 20 &#183; x = 61</text><rect x="591.0" y="416" width="104.0" height="150.0" rx="8" fill="#ffffff" stroke="#e7e5dc" stroke-width="1.1"/><text x="599.0" y="433" font-size="12.5" font-weight="700" fill="#0f3460">5</text><circle cx="643.0" cy="480" r="42.0" fill="#ffffff" stroke="#bdbbb1" stroke-width="1.2"/><path d="M643.0 480.0 L672.0 449.6 L674.9 452.7 L677.5 456.1 L679.8 459.7 L681.6 463.5 L683.1 467.5 L684.2 471.6 L684.8 475.8 L685.0 480.1 L684.8 484.3 L684.1 488.5 L683.1 492.6 L681.6 496.6 L679.7 500.4 L677.4 504.0 L674.8 507.4 L671.9 510.5 L668.7 513.3 L665.2 515.7 L661.4 517.7 L657.5 519.4 L653.5 520.7 L649.3 521.5 L645.1 521.9 L640.8 521.9 L636.6 521.5 L632.4 520.6 L628.4 519.4 L624.4 517.7 L620.7 515.6 L617.2 513.2 L614.0 510.4 Z" fill="#e3f2ec" fill-opacity="1" stroke="#9bc9b8" stroke-width="1.2"/><line x1="672.0" y1="449.6" x2="676.1" y2="445.3" stroke="#1e1e1e" stroke-width="2" stroke-linecap="round"/><line x1="643.0" y1="480" x2="624.7" y2="444.4" stroke="#185fa5" stroke-width="2" stroke-linecap="round"/><circle cx="624.7" cy="444.4" r="2.7" fill="#185fa5"/><circle cx="643.0" cy="480" r="2.1" fill="#1e1e1e"/><text x="643.0" y="540" font-size="10" fill="#333333" text-anchor="middle">T = 66 &#183; l = 33</text><text x="643.0" y="554" font-size="10" fill="#333333" text-anchor="middle">&#966; = 8 &#183; x = 61</text><line x1="16" y1="580" x2="814" y2="580" stroke="#d8d6cd" stroke-width="1.25" stroke-dasharray="3 5"/><text x="16" y="602" font-size="11.5" font-weight="500" fill="#0f3460">output code at <tspan font-style="italic" fill="#185fa5">x</tspan> = 61 — cells 2, 3, 4 fire</text><rect x="348.0" y="612" width="22" height="22" fill="#f4f2ec" stroke="#1e1e1e" stroke-width="1.4"/><text x="359.0" y="627.0" font-size="11.5" font-weight="600" fill="#1e1e1e" text-anchor="middle">1</text><rect x="376.0" y="612" width="22" height="22" fill="#1d9e75" stroke="#0f6e56" stroke-width="1.4"/><text x="387.0" y="627.0" font-size="11.5" font-weight="600" fill="#ffffff" text-anchor="middle">2</text><rect x="404.0" y="612" width="22" height="22" fill="#1d9e75" stroke="#0f6e56" stroke-width="1.4"/><text x="415.0" y="627.0" font-size="11.5" font-weight="600" fill="#ffffff" text-anchor="middle">3</text><rect x="432.0" y="612" width="22" height="22" fill="#1d9e75" stroke="#0f6e56" stroke-width="1.4"/><text x="443.0" y="627.0" font-size="11.5" font-weight="600" fill="#ffffff" text-anchor="middle">4</text><rect x="460.0" y="612" width="22" height="22" fill="#f4f2ec" stroke="#1e1e1e" stroke-width="1.4"/><text x="471.0" y="627.0" font-size="11.5" font-weight="600" fill="#1e1e1e" text-anchor="middle">5</text></svg>