<svg xmlns="http://www.w3.org/2000/svg" viewBox="0 0 830 646" width="830" height="646" font-family="-apple-system, BlinkMacSystemFont, 'Segoe UI', Roboto, Helvetica, Arial, sans-serif" role="img"><defs><marker id="ah" viewBox="0 0 10 10" refX="9" refY="5" markerWidth="7" markerHeight="7" orient="auto"><path d="M0 0 L10 5 L0 10 z" fill="#555555"/></marker><marker id="ahs" viewBox="0 0 10 10" refX="1" refY="5" markerWidth="7" markerHeight="7" orient="auto"><path d="M10 0 L0 5 L10 10 z" fill="#555555"/></marker><marker id="ahd" viewBox="0 0 10 10" refX="9" refY="5" markerWidth="7" markerHeight="7" orient="auto"><path d="M0 0 L10 5 L0 10 z" fill="#1e1e1e"/></marker><marker id="ahds" viewBox="0 0 10 10" refX="1" refY="5" markerWidth="7" markerHeight="7" orient="auto"><path d="M10 0 L0 5 L10 10 z" fill="#1e1e1e"/></marker><marker id="xah" viewBox="0 0 10 10" refX="8.5" refY="5" markerWidth="8" markerHeight="8" orient="auto"><path d="M0 0 L10 5 L0 10 z" fill="#185fa5"/></marker></defs><text x="415.0" y="28" font-size="16" font-weight="500" fill="#0f3460" text-anchor="middle">Periodic Fixed-Weight Encoder — symbolic</text><text x="24" y="56.0" font-size="12.5" fill="#555555">l = wT / n</text><rect x="150.0" y="94.0" width="300" height="238.0" fill="#eef3f9"/><line x1="150.0" y1="94.0" x2="150.0" y2="332.0" stroke="#9a9a93" stroke-width="1.5" stroke-dasharray="4 6"/><line x1="450.0" y1="94.0" x2="450.0" y2="332.0" stroke="#9a9a93" stroke-width="1.5" stroke-dasharray="4 6"/><line x1="750.0" y1="94.0" x2="750.0" y2="332.0" stroke="#9a9a93" stroke-width="1.5" stroke-dasharray="4 6"/><rect x="450.0" y="106.0" width="75.0" height="26" fill="#e3f2ec" stroke="#1d9e75" stroke-width="1.25" stroke-dasharray="4 3"/><rect x="487.5" y="138.0" width="75.0" height="26" fill="#e3f2ec" stroke="#1d9e75" stroke-width="1.25" stroke-dasharray="4 3"/><rect x="525.0" y="170.0" width="75.0" height="26" fill="#fafaf8" stroke="#b8b6ad" stroke-width="1.25" stroke-dasharray="4 3"/><rect x="637.5" y="202.0" width="75.0" height="26" fill="#fafaf8" stroke="#b8b6ad" stroke-width="1.25" stroke-dasharray="4 3"/><rect x="675.0" y="234.0" width="75.0" height="26" fill="#fafaf8" stroke="#b8b6ad" stroke-width="1.25" stroke-dasharray="4 3"/><rect x="712.5" y="266.0" width="37.5" height="26" fill="#fafaf8" stroke="#b8b6ad" stroke-width="1.25" stroke-dasharray="4 3"/><rect x="450.0" y="266.0" width="37.5" height="26" fill="#fafaf8" stroke="#b8b6ad" stroke-width="1.25" stroke-dasharray="4 3"/><rect x="112.5" y="266.0" width="37.5" height="26" fill="#fafaf8" stroke="#b8b6ad" stroke-width="1.25" stroke-dasharray="4 3"/><text x="487.5" y="123.0" font-size="13" font-weight="500" fill="#1d9e75" text-anchor="middle">1</text><text x="525.0" y="155.0" font-size="13" font-weight="500" fill="#1d9e75" text-anchor="middle">2</text><rect x="150.0" y="106.0" width="75.0" height="26" fill="#1d9e75" stroke="#0f6e56" stroke-width="1.5"/><text x="187.5" y="123.0" font-size="13" font-weight="500" fill="#ffffff" text-anchor="middle">1</text><rect x="187.5" y="138.0" width="75.0" height="26" fill="#1d9e75" stroke="#0f6e56" stroke-width="1.5"/><text x="225.0" y="155.0" font-size="13" font-weight="500" fill="#ffffff" text-anchor="middle">2</text><rect x="225.0" y="170.0" width="75.0" height="26" fill="#f4f2ec" stroke="#1e1e1e" stroke-width="1.5"/><text x="262.5" y="187.0" font-size="13" font-weight="500" fill="#1e1e1e" text-anchor="middle">3</text><g fill="#555555"><circle cx="308.0" cy="198.0" r="2.4"/><circle cx="315.0" cy="202.0" r="2.4"/><circle cx="322.0" cy="206.0" r="2.4"/></g><rect x="337.5" y="202.0" width="75.0" height="26" fill="#f4f2ec" stroke="#1e1e1e" stroke-width="1.5"/><text x="375.0" y="219.0" font-size="13" font-weight="500" fill="#1e1e1e" text-anchor="middle">n−2</text><rect x="375.0" y="234.0" width="75.0" height="26" fill="#f4f2ec" stroke="#1e1e1e" stroke-width="1.5"/><text x="412.5" y="251.0" font-size="13" font-weight="500" fill="#1e1e1e" text-anchor="middle">n−1</text><rect x="412.5" y="266.0" width="37.5" height="26" fill="#f4f2ec" stroke="#1e1e1e" stroke-width="1.5"/><rect x="150.0" y="266.0" width="37.5" height="26" fill="#f4f2ec" stroke="#1e1e1e" stroke-width="1.5"/><text x="431.2" y="283.0" font-size="13" font-weight="500" fill="#1e1e1e" text-anchor="middle">n</text><text x="168.8" y="283.0" font-size="13" font-weight="500" fill="#1e1e1e" text-anchor="middle">n</text><line x1="206.2" y1="84.0" x2="206.2" y2="329.0" stroke="#185fa5" stroke-width="2" stroke-dasharray="6 4" marker-end="url(#xah)"/><text x="206.2" y="79.0" font-size="13.5" font-style="italic" font-weight="600" fill="#185fa5" text-anchor="middle">x = 3</text><line x1="506.2" y1="84.0" x2="506.2" y2="329.0" stroke="#185fa5" stroke-width="2" stroke-dasharray="6 4" marker-end="url(#xah)"/><text x="506.2" y="79.0" font-size="13.5" font-style="italic" font-weight="600" fill="#185fa5" text-anchor="middle">x + T = 19</text><line x1="120" y1="106.0" x2="120" y2="164.0" stroke="#555555" stroke-width="1.25" marker-start="url(#ahs)" marker-end="url(#ah)"/><text x="112" y="140.0" font-size="15" font-style="italic" fill="#0f3460" text-anchor="end">w = 2</text><line x1="150.0" y1="92.0" x2="225.0" y2="92.0" stroke="#555555" stroke-width="1.25" marker-start="url(#ahs)" marker-end="url(#ah)"/><text x="150.0" y="87.0" font-size="14" font-style="italic" fill="#0f3460" text-anchor="start">l = 4</text><line x1="150.0" y1="310.0" x2="274.0" y2="310.0" stroke="#555555" stroke-width="1.25" marker-start="url(#ahs)"/><line x1="326.0" y1="310.0" x2="450.0" y2="310.0" stroke="#555555" stroke-width="1.25" marker-end="url(#ah)"/><text x="300.0" y="315.0" font-size="14" font-style="italic" fill="#0f3460" text-anchor="middle">T = 16</text><line x1="104" y1="332.0" x2="806" y2="332.0" stroke="#1e1e1e" stroke-width="1.5" marker-start="url(#ahds)" marker-end="url(#ahd)"/><line x1="150.0" y1="332.0" x2="150.0" y2="344.0" stroke="#1e1e1e" stroke-width="1.5"/><text x="150.0" y="360.0" font-size="12" fill="#555555" text-anchor="middle">origin = 0</text><line x1="450.0" y1="332.0" x2="450.0" y2="344.0" stroke="#1e1e1e" stroke-width="1.5"/><text x="450.0" y="360.0" font-size="12" fill="#555555" text-anchor="middle">origin + T = 16</text><line x1="750.0" y1="332.0" x2="750.0" y2="344.0" stroke="#1e1e1e" stroke-width="1.5"/><text x="750.0" y="360.0" font-size="12" fill="#555555" text-anchor="middle">origin + 2T = 32</text><text x="24" y="382.0" font-size="12" font-weight="500" fill="#0f6e56">each bin covers modular interval on the number line such that x and x + T share the same code (aliasing)</text><line x1="16" y1="392.0" x2="814" y2="392.0" stroke="#d8d6cd" stroke-width="1.25" stroke-dasharray="3 5"/><rect x="56.0" y="408" width="104.0" height="150.0" rx="8" fill="#ffffff" stroke="#1d9e75" stroke-width="2"/><text x="64.0" y="425" font-size="12.5" font-weight="700" fill="#0f6e56">1</text><circle cx="108.0" cy="472" r="42.0" fill="#ffffff" stroke="#bdbbb1" stroke-width="1.2"/><path d="M108.0 472.0 L108.0 430.0 L112.1 430.2 L116.2 430.8 L120.2 431.8 L124.1 433.2 L127.8 435.0 L131.3 437.1 L134.6 439.5 L137.7 442.3 L140.5 445.4 L142.9 448.7 L145.0 452.2 L146.8 455.9 L148.2 459.8 L149.2 463.8 L149.8 467.9 L150.0 472.0 Z" fill="#1d9e75" fill-opacity="0.85" stroke="#0f6e56" stroke-width="1.2"/><line x1="108.0" y1="430.0" x2="108.0" y2="424.0" stroke="#1e1e1e" stroke-width="2" stroke-linecap="round"/><line x1="108.0" y1="472" x2="145.0" y2="456.7" stroke="#0f6e56" stroke-width="2.4" stroke-linecap="round"/><circle cx="145.0" cy="456.7" r="2.7" fill="#0f6e56"/><circle cx="108.0" cy="472" r="2.1" fill="#1e1e1e"/><text x="108.0" y="532" font-size="10" fill="#333333" text-anchor="middle">T = 16 &#183; l = 4</text><text x="108.0" y="546" font-size="10" fill="#333333" text-anchor="middle">&#966; = 0 &#183; x = 3</text><rect x="170.0" y="408" width="104.0" height="150.0" rx="8" fill="#ffffff" stroke="#1d9e75" stroke-width="2"/><text x="178.0" y="425" font-size="12.5" font-weight="700" fill="#0f6e56">2</text><circle cx="222.0" cy="472" r="42.0" fill="#ffffff" stroke="#bdbbb1" stroke-width="1.2"/><path d="M222.0 472.0 L251.7 442.3 L254.5 445.4 L256.9 448.7 L259.0 452.2 L260.8 455.9 L262.2 459.8 L263.2 463.8 L263.8 467.9 L264.0 472.0 L263.8 476.1 L263.2 480.2 L262.2 484.2 L260.8 488.1 L259.0 491.8 L256.9 495.3 L254.5 498.6 L251.7 501.7 Z" fill="#1d9e75" fill-opacity="0.85" stroke="#0f6e56" stroke-width="1.2"/><path d="M222.0 435.0 L225.6 435.2 L229.2 435.7 L232.7 436.6 L236.2 437.8 L239.4 439.4 L242.6 441.2 L245.5 443.4 L248.2 445.8" fill="none" stroke="#b8b6ad" stroke-width="1.1" stroke-dasharray="2 3"/><line x1="222.0" y1="430.0" x2="222.0" y2="424.0" stroke="#1e1e1e" stroke-width="2" stroke-linecap="round"/><line x1="222.0" y1="472" x2="259.0" y2="456.7" stroke="#0f6e56" stroke-width="2.4" stroke-linecap="round"/><circle cx="259.0" cy="456.7" r="2.7" fill="#0f6e56"/><circle cx="222.0" cy="472" r="2.1" fill="#1e1e1e"/><text x="222.0" y="532" font-size="10" fill="#333333" text-anchor="middle">T = 16 &#183; l = 4</text><text x="222.0" y="546" font-size="10" fill="#333333" text-anchor="middle">&#966; = 2 &#183; x = 3</text><rect x="284.0" y="408" width="104.0" height="150.0" rx="8" fill="#ffffff" stroke="#e7e5dc" stroke-width="1.1"/><text x="292.0" y="425" font-size="12.5" font-weight="700" fill="#0f3460">3</text><circle cx="336.0" cy="472" r="42.0" fill="#ffffff" stroke="#bdbbb1" stroke-width="1.2"/><path d="M336.0 472.0 L378.0 472.0 L377.8 476.1 L377.2 480.2 L376.2 484.2 L374.8 488.1 L373.0 491.8 L370.9 495.3 L368.5 498.6 L365.7 501.7 L362.6 504.5 L359.3 506.9 L355.8 509.0 L352.1 510.8 L348.2 512.2 L344.2 513.2 L340.1 513.8 L336.0 514.0 Z" fill="#e3f2ec" fill-opacity="1" stroke="#9bc9b8" stroke-width="1.2"/><path d="M336.0 435.0 L339.6 435.2 L343.2 435.7 L346.7 436.6 L350.2 437.8 L353.4 439.4 L356.6 441.2 L359.5 443.4 L362.2 445.8 L364.6 448.5 L366.8 451.4 L368.6 454.6 L370.2 457.8 L371.4 461.3 L372.3 464.8 L372.8 468.4 L373.0 472.0" fill="none" stroke="#b8b6ad" stroke-width="1.1" stroke-dasharray="2 3"/><line x1="336.0" y1="430.0" x2="336.0" y2="424.0" stroke="#1e1e1e" stroke-width="2" stroke-linecap="round"/><line x1="336.0" y1="472" x2="373.0" y2="456.7" stroke="#185fa5" stroke-width="2" stroke-linecap="round"/><circle cx="373.0" cy="456.7" r="2.7" fill="#185fa5"/><circle cx="336.0" cy="472" r="2.1" fill="#1e1e1e"/><text x="336.0" y="532" font-size="10" fill="#333333" text-anchor="middle">T = 16 &#183; l = 4</text><text x="336.0" y="546" font-size="10" fill="#333333" text-anchor="middle">&#966; = 4 &#183; x = 3</text><circle cx="408.0" cy="472.0" r="2.4" fill="#555555"/><circle cx="415.0" cy="472.0" r="2.4" fill="#555555"/><circle cx="422.0" cy="472.0" r="2.4" fill="#555555"/><rect x="442.0" y="408" width="104.0" height="150.0" rx="8" fill="#ffffff" stroke="#e7e5dc" stroke-width="1.1"/><text x="450.0" y="425" font-size="12.5" font-weight="700" fill="#0f3460">n−2</text><circle cx="494.0" cy="472" r="42.0" fill="#ffffff" stroke="#bdbbb1" stroke-width="1.2"/><path d="M494.0 472.0 L464.3 501.7 L461.5 498.6 L459.1 495.3 L457.0 491.8 L455.2 488.1 L453.8 484.2 L452.8 480.2 L452.2 476.1 L452.0 472.0 L452.2 467.9 L452.8 463.8 L453.8 459.8 L455.2 455.9 L457.0 452.2 L459.1 448.7 L461.5 445.4 L464.3 442.3 Z" fill="#e3f2ec" fill-opacity="1" stroke="#9bc9b8" stroke-width="1.2"/><path d="M494.0 435.0 L497.8 435.2 L501.6 435.8 L505.3 436.8 L508.9 438.1 L512.3 439.8 L515.5 441.9 L518.5 444.3 L521.2 446.9 L523.7 449.9 L525.8 453.1 L527.6 456.4 L529.0 460.0 L530.0 463.7 L530.7 467.4 L531.0 471.2 L530.9 475.1 L530.4 478.8 L529.5 482.6 L528.2 486.2 L526.5 489.6 L524.6 492.9 L522.2 495.9 L519.6 498.7 L516.7 501.2 L513.6 503.4 L510.3 505.2 L506.7 506.7 L503.1 507.9 L499.3 508.6 L495.5 509.0 L491.7 508.9 L487.9 508.5 L484.2 507.7 L480.6 506.5 L477.1 504.9 L473.8 503.0 L470.7 500.7 L467.8 498.2" fill="none" stroke="#b8b6ad" stroke-width="1.1" stroke-dasharray="2 3"/><line x1="494.0" y1="430.0" x2="494.0" y2="424.0" stroke="#1e1e1e" stroke-width="2" stroke-linecap="round"/><line x1="494.0" y1="472" x2="531.0" y2="456.7" stroke="#185fa5" stroke-width="2" stroke-linecap="round"/><circle cx="531.0" cy="456.7" r="2.7" fill="#185fa5"/><circle cx="494.0" cy="472" r="2.1" fill="#1e1e1e"/><text x="494.0" y="532" font-size="10" fill="#333333" text-anchor="middle">T = 16 &#183; l = 4</text><text x="494.0" y="546" font-size="10" fill="#333333" text-anchor="middle">&#966; = 10 &#183; x = 3</text><rect x="556.0" y="408" width="104.0" height="150.0" rx="8" fill="#ffffff" stroke="#e7e5dc" stroke-width="1.1"/><text x="564.0" y="425" font-size="12.5" font-weight="700" fill="#0f3460">n−1</text><circle cx="608.0" cy="472" r="42.0" fill="#ffffff" stroke="#bdbbb1" stroke-width="1.2"/><path d="M608.0 472.0 L566.0 472.0 L566.2 467.9 L566.8 463.8 L567.8 459.8 L569.2 455.9 L571.0 452.2 L573.1 448.7 L575.5 445.4 L578.3 442.3 L581.4 439.5 L584.7 437.1 L588.2 435.0 L591.9 433.2 L595.8 431.8 L599.8 430.8 L603.9 430.2 L608.0 430.0 Z" fill="#e3f2ec" fill-opacity="1" stroke="#9bc9b8" stroke-width="1.2"/><path d="M608.0 435.0 L611.8 435.2 L615.5 435.8 L619.2 436.7 L622.7 438.1 L626.1 439.7 L629.3 441.8 L632.3 444.1 L635.0 446.7 L637.5 449.6 L639.6 452.8 L641.4 456.1 L642.9 459.6 L643.9 463.2 L644.7 467.0 L645.0 470.7 L644.9 474.5 L644.5 478.3 L643.6 482.0 L642.4 485.6 L640.9 489.0 L638.9 492.3 L636.7 495.4 L634.2 498.2 L631.4 500.7 L628.3 502.9 L625.0 504.9 L621.6 506.4 L618.0 507.6 L614.3 508.5 L610.5 508.9 L606.7 509.0 L603.0 508.7 L599.2 507.9 L595.6 506.9 L592.1 505.4 L588.8 503.6 L585.6 501.5 L582.7 499.0 L580.1 496.3 L577.8 493.3 L575.7 490.1 L574.1 486.7 L572.7 483.2 L571.8 479.5 L571.2 475.8 L571.0 472.0" fill="none" stroke="#b8b6ad" stroke-width="1.1" stroke-dasharray="2 3"/><line x1="608.0" y1="430.0" x2="608.0" y2="424.0" stroke="#1e1e1e" stroke-width="2" stroke-linecap="round"/><line x1="608.0" y1="472" x2="645.0" y2="456.7" stroke="#185fa5" stroke-width="2" stroke-linecap="round"/><circle cx="645.0" cy="456.7" r="2.7" fill="#185fa5"/><circle cx="608.0" cy="472" r="2.1" fill="#1e1e1e"/><text x="608.0" y="532" font-size="10" fill="#333333" text-anchor="middle">T = 16 &#183; l = 4</text><text x="608.0" y="546" font-size="10" fill="#333333" text-anchor="middle">&#966; = 12 &#183; x = 3</text><rect x="670.0" y="408" width="104.0" height="150.0" rx="8" fill="#ffffff" stroke="#e7e5dc" stroke-width="1.1"/><text x="678.0" y="425" font-size="12.5" font-weight="700" fill="#0f3460">n</text><circle cx="722.0" cy="472" r="42.0" fill="#ffffff" stroke="#bdbbb1" stroke-width="1.2"/><path d="M722.0 472.0 L692.3 442.3 L695.4 439.5 L698.7 437.1 L702.2 435.0 L705.9 433.2 L709.8 431.8 L713.8 430.8 L717.9 430.2 L722.0 430.0 L726.1 430.2 L730.2 430.8 L734.2 431.8 L738.1 433.2 L741.8 435.0 L745.3 437.1 L748.6 439.5 L751.7 442.3 Z" fill="#e3f2ec" fill-opacity="1" stroke="#9bc9b8" stroke-width="1.2"/><path d="M722.0 435.0 L725.8 435.2 L729.6 435.8 L733.3 436.8 L736.9 438.1 L740.3 439.9 L743.6 441.9 L746.6 444.3 L749.3 447.0 L751.7 450.0 L753.9 453.2 L755.6 456.6 L757.1 460.2 L758.1 463.8 L758.7 467.6 L759.0 471.5 L758.9 475.3 L758.3 479.1 L757.4 482.8 L756.1 486.4 L754.4 489.9 L752.4 493.1 L750.0 496.2 L747.4 498.9 L744.5 501.4 L741.3 503.6 L737.9 505.4 L734.4 506.9 L730.7 508.0 L726.9 508.7 L723.1 509.0 L719.3 508.9 L715.5 508.4 L711.7 507.5 L708.1 506.3 L704.6 504.7 L701.3 502.7 L698.3 500.4 L695.5 497.8 L692.9 494.9 L690.7 491.8 L688.8 488.4 L687.3 484.9 L686.2 481.2 L685.4 477.5 L685.0 473.6 L685.1 469.8 L685.5 466.0 L686.3 462.2 L687.5 458.6 L689.1 455.1 L691.0 451.8 L693.3 448.7 L695.8 445.8" fill="none" stroke="#b8b6ad" stroke-width="1.1" stroke-dasharray="2 3"/><line x1="722.0" y1="430.0" x2="722.0" y2="424.0" stroke="#1e1e1e" stroke-width="2" stroke-linecap="round"/><line x1="722.0" y1="472" x2="759.0" y2="456.7" stroke="#185fa5" stroke-width="2" stroke-linecap="round"/><circle cx="759.0" cy="456.7" r="2.7" fill="#185fa5"/><circle cx="722.0" cy="472" r="2.1" fill="#1e1e1e"/><text x="722.0" y="532" font-size="10" fill="#333333" text-anchor="middle">T = 16 &#183; l = 4</text><text x="722.0" y="546" font-size="10" fill="#333333" text-anchor="middle">&#966; = 14 &#183; x = 3</text><line x1="16" y1="572" x2="814" y2="572" stroke="#d8d6cd" stroke-width="1.25" stroke-dasharray="3 5"/><text x="16" y="594" font-size="11.5" font-weight="500" fill="#0f3460">output code at <tspan font-style="italic" fill="#185fa5">x</tspan> = 3 — bins 1, 2 fire</text><rect x="318.0" y="604" width="22" height="22" fill="#1d9e75" stroke="#0f6e56" stroke-width="1.4"/><text x="329.0" y="619.0" font-size="11.5" font-weight="600" fill="#ffffff" text-anchor="middle">1</text><rect x="346.0" y="604" width="22" height="22" fill="#1d9e75" stroke="#0f6e56" stroke-width="1.4"/><text x="357.0" y="619.0" font-size="11.5" font-weight="600" fill="#ffffff" text-anchor="middle">2</text><rect x="374.0" y="604" width="22" height="22" fill="#f4f2ec" stroke="#1e1e1e" stroke-width="1.4"/><text x="385.0" y="619.0" font-size="11.5" font-weight="600" fill="#1e1e1e" text-anchor="middle">3</text><circle cx="408.0" cy="615.0" r="2.2" fill="#555555"/><circle cx="415.0" cy="615.0" r="2.2" fill="#555555"/><circle cx="422.0" cy="615.0" r="2.2" fill="#555555"/><rect x="434.0" y="604" width="22" height="22" fill="#f4f2ec" stroke="#1e1e1e" stroke-width="1.4"/><text x="445.0" y="619.0" font-size="8.5" font-weight="600" fill="#1e1e1e" text-anchor="middle">n−2</text><rect x="462.0" y="604" width="22" height="22" fill="#f4f2ec" stroke="#1e1e1e" stroke-width="1.4"/><text x="473.0" y="619.0" font-size="8.5" font-weight="600" fill="#1e1e1e" text-anchor="middle">n−1</text><rect x="490.0" y="604" width="22" height="22" fill="#f4f2ec" stroke="#1e1e1e" stroke-width="1.4"/><text x="501.0" y="619.0" font-size="11.5" font-weight="600" fill="#1e1e1e" text-anchor="middle">n</text></svg>